<?xml version="1.0" encoding="utf-8"?>
<!-- Generator: Adobe Illustrator 23.0.4, SVG Export Plug-In . SVG Version: 6.00 Build 0)  -->
<svg version="1.1" id="Layer_1" xmlns="http://www.w3.org/2000/svg" xmlns:xlink="http://www.w3.org/1999/xlink" x="0px" y="0px"
	 viewBox="0 0 321.28 407.45" style="enable-background:new 0 0 321.28 407.45;" xml:space="preserve">
<path d="M261.06,168.33h-87.3L138.98,54.12h-18.84L66.16,231.39h23.83l11.41-39.64h56.32l11.51,39.64h23.73l-12.18-40h54.24v106.19
	c0,5.39-0.9,9.87-2.69,13.43c-1.71,3.71-4.09,6.7-7.12,8.95c-6.23,4.59-12.76,6.81-19.61,6.66c-5.14,0-9.61-1.13-13.42-3.38
	c-3.81-1.89-6.93-4.33-9.34-7.32l-20.78,14.09c9.73,13.39,24.48,20.31,44.24,20.75c14.32-0.15,26.89-4.7,37.71-13.65
	c10.89-8.73,16.5-21.11,16.81-37.12V191.39h0.24V168.33z M129.41,90.47h0.41l21.49,77.45h-43.39L129.41,90.47z"/>
</svg>
